ISO-10303-21;
HEADER;
/* Generated by software containing ST-Developer
 * from STEP Tools, Inc. (www.steptools.com) 
 */

FILE_DESCRIPTION(
/* description */ (''),
/* implementation_level */ '2;1');

FILE_NAME(
/* name */ 'pixelpadv2-BOX.step',
/* time_stamp */ '2026-08-14T10:24:42+12:00',
/* author */ (''),
/* organization */ (''),
/* preprocessor_version */ 'ST-DEVELOPER v20.1',
/* originating_system */ 'Autodesk Translation Framework v15.8.0.0',
/* authorisation */ '');

FILE_SCHEMA (('AUTOMOTIVE_DESIGN { 1 0 10303 214 3 1 1 }'));
ENDSEC;

DATA;
#10=MECHANICAL_DESIGN_GEOMETRIC_PRESENTATION_REPRESENTATION('',(#13),#621);
#11=SHAPE_REPRESENTATION_RELATIONSHIP('SRR','None',#628,#12);
#12=ADVANCED_BREP_SHAPE_REPRESENTATION('',(#14),#620);
#13=STYLED_ITEM('',(#637),#14);
#14=MANIFOLD_SOLID_BREP('Body6',#365);
#15=CYLINDRICAL_SURFACE('',#392,1.45);
#16=CYLINDRICAL_SURFACE('',#394,1.45);
#17=CYLINDRICAL_SURFACE('',#396,1.45);
#18=CYLINDRICAL_SURFACE('',#398,1.45);
#19=CYLINDRICAL_SURFACE('',#401,5.);
#20=CYLINDRICAL_SURFACE('',#404,5.);
#21=CYLINDRICAL_SURFACE('',#407,5.);
#22=CYLINDRICAL_SURFACE('',#410,5.);
#23=FACE_BOUND('',#72,.T.);
#24=FACE_BOUND('',#73,.T.);
#25=FACE_BOUND('',#74,.T.);
#26=FACE_BOUND('',#75,.T.);
#27=FACE_BOUND('',#76,.T.);
#28=FACE_BOUND('',#91,.T.);
#29=FACE_BOUND('',#92,.T.);
#30=FACE_BOUND('',#93,.T.);
#31=FACE_BOUND('',#94,.T.);
#32=CIRCLE('',#384,5.);
#33=CIRCLE('',#385,5.);
#34=CIRCLE('',#386,5.);
#35=CIRCLE('',#387,5.);
#36=CIRCLE('',#388,1.45);
#37=CIRCLE('',#389,1.45);
#38=CIRCLE('',#390,1.45);
#39=CIRCLE('',#391,1.45);
#40=CIRCLE('',#393,1.45);
#41=CIRCLE('',#395,1.45);
#42=CIRCLE('',#397,1.45);
#43=CIRCLE('',#399,1.45);
#44=CIRCLE('',#402,5.);
#45=CIRCLE('',#405,5.);
#46=CIRCLE('',#408,5.);
#47=CIRCLE('',#411,5.);
#48=FACE_OUTER_BOUND('',#67,.T.);
#49=FACE_OUTER_BOUND('',#68,.T.);
#50=FACE_OUTER_BOUND('',#69,.T.);
#51=FACE_OUTER_BOUND('',#70,.T.);
#52=FACE_OUTER_BOUND('',#71,.T.);
#53=FACE_OUTER_BOUND('',#77,.T.);
#54=FACE_OUTER_BOUND('',#78,.T.);
#55=FACE_OUTER_BOUND('',#79,.T.);
#56=FACE_OUTER_BOUND('',#80,.T.);
#57=FACE_OUTER_BOUND('',#81,.T.);
#58=FACE_OUTER_BOUND('',#82,.T.);
#59=FACE_OUTER_BOUND('',#83,.T.);
#60=FACE_OUTER_BOUND('',#84,.T.);
#61=FACE_OUTER_BOUND('',#85,.T.);
#62=FACE_OUTER_BOUND('',#86,.T.);
#63=FACE_OUTER_BOUND('',#87,.T.);
#64=FACE_OUTER_BOUND('',#88,.T.);
#65=FACE_OUTER_BOUND('',#89,.T.);
#66=FACE_OUTER_BOUND('',#90,.T.);
#67=EDGE_LOOP('',(#239,#240,#241,#242));
#68=EDGE_LOOP('',(#243,#244,#245,#246));
#69=EDGE_LOOP('',(#247,#248,#249,#250));
#70=EDGE_LOOP('',(#251,#252,#253,#254));
#71=EDGE_LOOP('',(#255,#256,#257,#258,#259,#260,#261,#262));
#72=EDGE_LOOP('',(#263));
#73=EDGE_LOOP('',(#264));
#74=EDGE_LOOP('',(#265));
#75=EDGE_LOOP('',(#266,#267,#268,#269));
#76=EDGE_LOOP('',(#270));
#77=EDGE_LOOP('',(#271,#272,#273,#274));
#78=EDGE_LOOP('',(#275,#276,#277,#278));
#79=EDGE_LOOP('',(#279,#280,#281,#282));
#80=EDGE_LOOP('',(#283,#284,#285,#286));
#81=EDGE_LOOP('',(#287,#288,#289,#290));
#82=EDGE_LOOP('',(#291,#292,#293,#294));
#83=EDGE_LOOP('',(#295,#296,#297,#298));
#84=EDGE_LOOP('',(#299,#300,#301,#302));
#85=EDGE_LOOP('',(#303,#304,#305,#306));
#86=EDGE_LOOP('',(#307,#308,#309,#310));
#87=EDGE_LOOP('',(#311,#312,#313,#314));
#88=EDGE_LOOP('',(#315,#316,#317,#318));
#89=EDGE_LOOP('',(#319,#320,#321,#322));
#90=EDGE_LOOP('',(#323,#324,#325,#326,#327,#328,#329,#330));
#91=EDGE_LOOP('',(#331));
#92=EDGE_LOOP('',(#332));
#93=EDGE_LOOP('',(#333));
#94=EDGE_LOOP('',(#334));
#95=LINE('',#522,#127);
#96=LINE('',#524,#128);
#97=LINE('',#526,#129);
#98=LINE('',#527,#130);
#99=LINE('',#530,#131);
#100=LINE('',#532,#132);
#101=LINE('',#533,#133);
#102=LINE('',#536,#134);
#103=LINE('',#538,#135);
#104=LINE('',#539,#136);
#105=LINE('',#541,#137);
#106=LINE('',#542,#138);
#107=LINE('',#548,#139);
#108=LINE('',#552,#140);
#109=LINE('',#556,#141);
#110=LINE('',#559,#142);
#111=LINE('',#570,#143);
#112=LINE('',#574,#144);
#113=LINE('',#578,#145);
#114=LINE('',#582,#146);
#115=LINE('',#587,#147);
#116=LINE('',#588,#148);
#117=LINE('',#589,#149);
#118=LINE('',#593,#150);
#119=LINE('',#596,#151);
#120=LINE('',#597,#152);
#121=LINE('',#601,#153);
#122=LINE('',#604,#154);
#123=LINE('',#605,#155);
#124=LINE('',#609,#156);
#125=LINE('',#612,#157);
#126=LINE('',#613,#158);
#127=VECTOR('',#418,10.);
#128=VECTOR('',#419,10.);
#129=VECTOR('',#420,10.);
#130=VECTOR('',#421,10.);
#131=VECTOR('',#424,10.);
#132=VECTOR('',#425,10.);
#133=VECTOR('',#426,10.);
#134=VECTOR('',#429,10.);
#135=VECTOR('',#430,10.);
#136=VECTOR('',#431,10.);
#137=VECTOR('',#434,10.);
#138=VECTOR('',#435,10.);
#139=VECTOR('',#440,10.);
#140=VECTOR('',#443,10.);
#141=VECTOR('',#446,10.);
#142=VECTOR('',#449,10.);
#143=VECTOR('',#460,1.45);
#144=VECTOR('',#465,1.45);
#145=VECTOR('',#470,1.45);
#146=VECTOR('',#475,1.45);
#147=VECTOR('',#480,10.);
#148=VECTOR('',#481,10.);
#149=VECTOR('',#482,10.);
#150=VECTOR('',#487,10.);
#151=VECTOR('',#490,10.);
#152=VECTOR('',#491,10.);
#153=VECTOR('',#496,10.);
#154=VECTOR('',#499,10.);
#155=VECTOR('',#500,10.);
#156=VECTOR('',#505,10.);
#157=VECTOR('',#508,10.);
#158=VECTOR('',#509,10.);
#159=VERTEX_POINT('',#520);
#160=VERTEX_POINT('',#521);
#161=VERTEX_POINT('',#523);
#162=VERTEX_POINT('',#525);
#163=VERTEX_POINT('',#529);
#164=VERTEX_POINT('',#531);
#165=VERTEX_POINT('',#535);
#166=VERTEX_POINT('',#537);
#167=VERTEX_POINT('',#544);
#168=VERTEX_POINT('',#545);
#169=VERTEX_POINT('',#547);
#170=VERTEX_POINT('',#549);
#171=VERTEX_POINT('',#551);
#172=VERTEX_POINT('',#553);
#173=VERTEX_POINT('',#555);
#174=VERTEX_POINT('',#557);
#175=VERTEX_POINT('',#560);
#176=VERTEX_POINT('',#562);
#177=VERTEX_POINT('',#564);
#178=VERTEX_POINT('',#566);
#179=VERTEX_POINT('',#569);
#180=VERTEX_POINT('',#573);
#181=VERTEX_POINT('',#577);
#182=VERTEX_POINT('',#581);
#183=VERTEX_POINT('',#585);
#184=VERTEX_POINT('',#586);
#185=VERTEX_POINT('',#591);
#186=VERTEX_POINT('',#595);
#187=VERTEX_POINT('',#599);
#188=VERTEX_POINT('',#603);
#189=VERTEX_POINT('',#607);
#190=VERTEX_POINT('',#611);
#191=EDGE_CURVE('',#159,#160,#95,.T.);
#192=EDGE_CURVE('',#159,#161,#96,.T.);
#193=EDGE_CURVE('',#162,#161,#97,.T.);
#194=EDGE_CURVE('',#160,#162,#98,.T.);
#195=EDGE_CURVE('',#163,#159,#99,.T.);
#196=EDGE_CURVE('',#163,#164,#100,.T.);
#197=EDGE_CURVE('',#161,#164,#101,.T.);
#198=EDGE_CURVE('',#160,#165,#102,.T.);
#199=EDGE_CURVE('',#166,#162,#103,.T.);
#200=EDGE_CURVE('',#165,#166,#104,.T.);
#201=EDGE_CURVE('',#165,#163,#105,.T.);
#202=EDGE_CURVE('',#164,#166,#106,.T.);
#203=EDGE_CURVE('',#167,#168,#32,.T.);
#204=EDGE_CURVE('',#168,#169,#107,.T.);
#205=EDGE_CURVE('',#169,#170,#33,.T.);
#206=EDGE_CURVE('',#170,#171,#108,.T.);
#207=EDGE_CURVE('',#171,#172,#34,.T.);
#208=EDGE_CURVE('',#172,#173,#109,.T.);
#209=EDGE_CURVE('',#173,#174,#35,.T.);
#210=EDGE_CURVE('',#174,#167,#110,.T.);
#211=EDGE_CURVE('',#175,#175,#36,.T.);
#212=EDGE_CURVE('',#176,#176,#37,.T.);
#213=EDGE_CURVE('',#177,#177,#38,.T.);
#214=EDGE_CURVE('',#178,#178,#39,.T.);
#215=EDGE_CURVE('',#178,#179,#111,.T.);
#216=EDGE_CURVE('',#179,#179,#40,.T.);
#217=EDGE_CURVE('',#175,#180,#112,.T.);
#218=EDGE_CURVE('',#180,#180,#41,.T.);
#219=EDGE_CURVE('',#177,#181,#113,.T.);
#220=EDGE_CURVE('',#181,#181,#42,.T.);
#221=EDGE_CURVE('',#176,#182,#114,.T.);
#222=EDGE_CURVE('',#182,#182,#43,.T.);
#223=EDGE_CURVE('',#183,#184,#115,.T.);
#224=EDGE_CURVE('',#183,#167,#116,.T.);
#225=EDGE_CURVE('',#184,#174,#117,.T.);
#226=EDGE_CURVE('',#185,#184,#44,.T.);
#227=EDGE_CURVE('',#185,#173,#118,.T.);
#228=EDGE_CURVE('',#185,#186,#119,.T.);
#229=EDGE_CURVE('',#186,#172,#120,.T.);
#230=EDGE_CURVE('',#187,#186,#45,.T.);
#231=EDGE_CURVE('',#187,#171,#121,.T.);
#232=EDGE_CURVE('',#188,#187,#122,.T.);
#233=EDGE_CURVE('',#188,#170,#123,.T.);
#234=EDGE_CURVE('',#189,#188,#46,.T.);
#235=EDGE_CURVE('',#189,#169,#124,.T.);
#236=EDGE_CURVE('',#190,#189,#125,.T.);
#237=EDGE_CURVE('',#190,#168,#126,.T.);
#238=EDGE_CURVE('',#183,#190,#47,.T.);
#239=ORIENTED_EDGE('',*,*,#191,.F.);
#240=ORIENTED_EDGE('',*,*,#192,.T.);
#241=ORIENTED_EDGE('',*,*,#193,.F.);
#242=ORIENTED_EDGE('',*,*,#194,.F.);
#243=ORIENTED_EDGE('',*,*,#195,.F.);
#244=ORIENTED_EDGE('',*,*,#196,.T.);
#245=ORIENTED_EDGE('',*,*,#197,.F.);
#246=ORIENTED_EDGE('',*,*,#192,.F.);
#247=ORIENTED_EDGE('',*,*,#198,.F.);
#248=ORIENTED_EDGE('',*,*,#194,.T.);
#249=ORIENTED_EDGE('',*,*,#199,.F.);
#250=ORIENTED_EDGE('',*,*,#200,.F.);
#251=ORIENTED_EDGE('',*,*,#201,.F.);
#252=ORIENTED_EDGE('',*,*,#200,.T.);
#253=ORIENTED_EDGE('',*,*,#202,.F.);
#254=ORIENTED_EDGE('',*,*,#196,.F.);
#255=ORIENTED_EDGE('',*,*,#203,.T.);
#256=ORIENTED_EDGE('',*,*,#204,.T.);
#257=ORIENTED_EDGE('',*,*,#205,.T.);
#258=ORIENTED_EDGE('',*,*,#206,.T.);
#259=ORIENTED_EDGE('',*,*,#207,.T.);
#260=ORIENTED_EDGE('',*,*,#208,.T.);
#261=ORIENTED_EDGE('',*,*,#209,.T.);
#262=ORIENTED_EDGE('',*,*,#210,.T.);
#263=ORIENTED_EDGE('',*,*,#211,.T.);
#264=ORIENTED_EDGE('',*,*,#212,.T.);
#265=ORIENTED_EDGE('',*,*,#213,.T.);
#266=ORIENTED_EDGE('',*,*,#202,.T.);
#267=ORIENTED_EDGE('',*,*,#199,.T.);
#268=ORIENTED_EDGE('',*,*,#193,.T.);
#269=ORIENTED_EDGE('',*,*,#197,.T.);
#270=ORIENTED_EDGE('',*,*,#214,.T.);
#271=ORIENTED_EDGE('',*,*,#214,.F.);
#272=ORIENTED_EDGE('',*,*,#215,.T.);
#273=ORIENTED_EDGE('',*,*,#216,.T.);
#274=ORIENTED_EDGE('',*,*,#215,.F.);
#275=ORIENTED_EDGE('',*,*,#211,.F.);
#276=ORIENTED_EDGE('',*,*,#217,.T.);
#277=ORIENTED_EDGE('',*,*,#218,.T.);
#278=ORIENTED_EDGE('',*,*,#217,.F.);
#279=ORIENTED_EDGE('',*,*,#213,.F.);
#280=ORIENTED_EDGE('',*,*,#219,.T.);
#281=ORIENTED_EDGE('',*,*,#220,.T.);
#282=ORIENTED_EDGE('',*,*,#219,.F.);
#283=ORIENTED_EDGE('',*,*,#212,.F.);
#284=ORIENTED_EDGE('',*,*,#221,.T.);
#285=ORIENTED_EDGE('',*,*,#222,.T.);
#286=ORIENTED_EDGE('',*,*,#221,.F.);
#287=ORIENTED_EDGE('',*,*,#223,.F.);
#288=ORIENTED_EDGE('',*,*,#224,.T.);
#289=ORIENTED_EDGE('',*,*,#210,.F.);
#290=ORIENTED_EDGE('',*,*,#225,.F.);
#291=ORIENTED_EDGE('',*,*,#226,.T.);
#292=ORIENTED_EDGE('',*,*,#225,.T.);
#293=ORIENTED_EDGE('',*,*,#209,.F.);
#294=ORIENTED_EDGE('',*,*,#227,.F.);
#295=ORIENTED_EDGE('',*,*,#228,.F.);
#296=ORIENTED_EDGE('',*,*,#227,.T.);
#297=ORIENTED_EDGE('',*,*,#208,.F.);
#298=ORIENTED_EDGE('',*,*,#229,.F.);
#299=ORIENTED_EDGE('',*,*,#230,.T.);
#300=ORIENTED_EDGE('',*,*,#229,.T.);
#301=ORIENTED_EDGE('',*,*,#207,.F.);
#302=ORIENTED_EDGE('',*,*,#231,.F.);
#303=ORIENTED_EDGE('',*,*,#232,.T.);
#304=ORIENTED_EDGE('',*,*,#231,.T.);
#305=ORIENTED_EDGE('',*,*,#206,.F.);
#306=ORIENTED_EDGE('',*,*,#233,.F.);
#307=ORIENTED_EDGE('',*,*,#234,.T.);
#308=ORIENTED_EDGE('',*,*,#233,.T.);
#309=ORIENTED_EDGE('',*,*,#205,.F.);
#310=ORIENTED_EDGE('',*,*,#235,.F.);
#311=ORIENTED_EDGE('',*,*,#236,.T.);
#312=ORIENTED_EDGE('',*,*,#235,.T.);
#313=ORIENTED_EDGE('',*,*,#204,.F.);
#314=ORIENTED_EDGE('',*,*,#237,.F.);
#315=ORIENTED_EDGE('',*,*,#238,.T.);
#316=ORIENTED_EDGE('',*,*,#237,.T.);
#317=ORIENTED_EDGE('',*,*,#203,.F.);
#318=ORIENTED_EDGE('',*,*,#224,.F.);
#319=ORIENTED_EDGE('',*,*,#195,.T.);
#320=ORIENTED_EDGE('',*,*,#191,.T.);
#321=ORIENTED_EDGE('',*,*,#198,.T.);
#322=ORIENTED_EDGE('',*,*,#201,.T.);
#323=ORIENTED_EDGE('',*,*,#238,.F.);
#324=ORIENTED_EDGE('',*,*,#223,.T.);
#325=ORIENTED_EDGE('',*,*,#226,.F.);
#326=ORIENTED_EDGE('',*,*,#228,.T.);
#327=ORIENTED_EDGE('',*,*,#230,.F.);
#328=ORIENTED_EDGE('',*,*,#232,.F.);
#329=ORIENTED_EDGE('',*,*,#234,.F.);
#330=ORIENTED_EDGE('',*,*,#236,.F.);
#331=ORIENTED_EDGE('',*,*,#222,.F.);
#332=ORIENTED_EDGE('',*,*,#220,.F.);
#333=ORIENTED_EDGE('',*,*,#218,.F.);
#334=ORIENTED_EDGE('',*,*,#216,.F.);
#335=PLANE('',#379);
#336=PLANE('',#380);
#337=PLANE('',#381);
#338=PLANE('',#382);
#339=PLANE('',#383);
#340=PLANE('',#400);
#341=PLANE('',#403);
#342=PLANE('',#406);
#343=PLANE('',#409);
#344=PLANE('',#412);
#345=PLANE('',#413);
#346=ADVANCED_FACE('',(#48),#335,.T.);
#347=ADVANCED_FACE('',(#49),#336,.T.);
#348=ADVANCED_FACE('',(#50),#337,.T.);
#349=ADVANCED_FACE('',(#51),#338,.T.);
#350=ADVANCED_FACE('',(#52,#23,#24,#25,#26,#27),#339,.T.);
#351=ADVANCED_FACE('',(#53),#15,.F.);
#352=ADVANCED_FACE('',(#54),#16,.F.);
#353=ADVANCED_FACE('',(#55),#17,.F.);
#354=ADVANCED_FACE('',(#56),#18,.F.);
#355=ADVANCED_FACE('',(#57),#340,.T.);
#356=ADVANCED_FACE('',(#58),#19,.T.);
#357=ADVANCED_FACE('',(#59),#341,.T.);
#358=ADVANCED_FACE('',(#60),#20,.T.);
#359=ADVANCED_FACE('',(#61),#342,.T.);
#360=ADVANCED_FACE('',(#62),#21,.T.);
#361=ADVANCED_FACE('',(#63),#343,.T.);
#362=ADVANCED_FACE('',(#64),#22,.T.);
#363=ADVANCED_FACE('',(#65),#344,.T.);
#364=ADVANCED_FACE('',(#66,#28,#29,#30,#31),#345,.F.);
#365=CLOSED_SHELL('',(#346,#347,#348,#349,#350,#351,#352,#353,#354,#355,
#356,#357,#358,#359,#360,#361,#362,#363,#364));
#366=DERIVED_UNIT_ELEMENT(#368,1.);
#367=DERIVED_UNIT_ELEMENT(#623,-3.);
#368=(
MASS_UNIT()
NAMED_UNIT(*)
SI_UNIT(.KILO.,.GRAM.)
);
#369=DERIVED_UNIT((#366,#367));
#370=MEASURE_REPRESENTATION_ITEM('density measure',
POSITIVE_RATIO_MEASURE(7850.),#369);
#371=PROPERTY_DEFINITION_REPRESENTATION(#376,#373);
#372=PROPERTY_DEFINITION_REPRESENTATION(#377,#374);
#373=REPRESENTATION('material name',(#375),#620);
#374=REPRESENTATION('density',(#370),#620);
#375=DESCRIPTIVE_REPRESENTATION_ITEM('Steel','Steel');
#376=PROPERTY_DEFINITION('material property','material name',#630);
#377=PROPERTY_DEFINITION('material property','density of part',#630);
#378=AXIS2_PLACEMENT_3D('',#518,#414,#415);
#379=AXIS2_PLACEMENT_3D('',#519,#416,#417);
#380=AXIS2_PLACEMENT_3D('',#528,#422,#423);
#381=AXIS2_PLACEMENT_3D('',#534,#427,#428);
#382=AXIS2_PLACEMENT_3D('',#540,#432,#433);
#383=AXIS2_PLACEMENT_3D('',#543,#436,#437);
#384=AXIS2_PLACEMENT_3D('',#546,#438,#439);
#385=AXIS2_PLACEMENT_3D('',#550,#441,#442);
#386=AXIS2_PLACEMENT_3D('',#554,#444,#445);
#387=AXIS2_PLACEMENT_3D('',#558,#447,#448);
#388=AXIS2_PLACEMENT_3D('',#561,#450,#451);
#389=AXIS2_PLACEMENT_3D('',#563,#452,#453);
#390=AXIS2_PLACEMENT_3D('',#565,#454,#455);
#391=AXIS2_PLACEMENT_3D('',#567,#456,#457);
#392=AXIS2_PLACEMENT_3D('',#568,#458,#459);
#393=AXIS2_PLACEMENT_3D('',#571,#461,#462);
#394=AXIS2_PLACEMENT_3D('',#572,#463,#464);
#395=AXIS2_PLACEMENT_3D('',#575,#466,#467);
#396=AXIS2_PLACEMENT_3D('',#576,#468,#469);
#397=AXIS2_PLACEMENT_3D('',#579,#471,#472);
#398=AXIS2_PLACEMENT_3D('',#580,#473,#474);
#399=AXIS2_PLACEMENT_3D('',#583,#476,#477);
#400=AXIS2_PLACEMENT_3D('',#584,#478,#479);
#401=AXIS2_PLACEMENT_3D('',#590,#483,#484);
#402=AXIS2_PLACEMENT_3D('',#592,#485,#486);
#403=AXIS2_PLACEMENT_3D('',#594,#488,#489);
#404=AXIS2_PLACEMENT_3D('',#598,#492,#493);
#405=AXIS2_PLACEMENT_3D('',#600,#494,#495);
#406=AXIS2_PLACEMENT_3D('',#602,#497,#498);
#407=AXIS2_PLACEMENT_3D('',#606,#501,#502);
#408=AXIS2_PLACEMENT_3D('',#608,#503,#504);
#409=AXIS2_PLACEMENT_3D('',#610,#506,#507);
#410=AXIS2_PLACEMENT_3D('',#614,#510,#511);
#411=AXIS2_PLACEMENT_3D('',#615,#512,#513);
#412=AXIS2_PLACEMENT_3D('',#616,#514,#515);
#413=AXIS2_PLACEMENT_3D('',#617,#516,#517);
#414=DIRECTION('axis',(0.,0.,1.));
#415=DIRECTION('refdir',(1.,0.,0.));
#416=DIRECTION('center_axis',(0.,0.,-1.));
#417=DIRECTION('ref_axis',(1.,-2.22044604925031E-16,0.));
#418=DIRECTION('',(-1.,2.22044604925031E-16,0.));
#419=DIRECTION('',(-2.22044604925031E-16,-1.,0.));
#420=DIRECTION('',(1.,-2.22044604925031E-16,0.));
#421=DIRECTION('',(-2.22044604925031E-16,-1.,0.));
#422=DIRECTION('center_axis',(-1.,2.22044604925031E-16,0.));
#423=DIRECTION('ref_axis',(0.,0.,-1.));
#424=DIRECTION('',(0.,0.,1.));
#425=DIRECTION('',(-2.22044604925031E-16,-1.,0.));
#426=DIRECTION('',(0.,0.,-1.));
#427=DIRECTION('center_axis',(1.,-2.22044604925031E-16,0.));
#428=DIRECTION('ref_axis',(0.,0.,1.));
#429=DIRECTION('',(0.,0.,-1.));
#430=DIRECTION('',(0.,0.,1.));
#431=DIRECTION('',(-2.22044604925031E-16,-1.,0.));
#432=DIRECTION('center_axis',(0.,0.,1.));
#433=DIRECTION('ref_axis',(-1.,2.22044604925031E-16,0.));
#434=DIRECTION('',(1.,-2.22044604925031E-16,0.));
#435=DIRECTION('',(-1.,2.22044604925031E-16,0.));
#436=DIRECTION('center_axis',(-2.22044604925031E-16,-1.,0.));
#437=DIRECTION('ref_axis',(0.,0.,-1.));
#438=DIRECTION('center_axis',(-2.22044604925031E-16,-1.,0.));
#439=DIRECTION('ref_axis',(1.,-2.22044604925031E-16,0.));
#440=DIRECTION('',(-1.,2.22044604925031E-16,0.));
#441=DIRECTION('center_axis',(-2.22044604925031E-16,-1.,0.));
#442=DIRECTION('ref_axis',(3.5527136788005E-15,-7.88860905221012E-31,1.));
#443=DIRECTION('',(0.,0.,-1.));
#444=DIRECTION('center_axis',(-2.22044604925031E-16,-1.,0.));
#445=DIRECTION('ref_axis',(-1.,2.22044604925031E-16,2.66453525910038E-15));
#446=DIRECTION('',(1.,-2.22044604925031E-16,5.04646829375071E-17));
#447=DIRECTION('center_axis',(-2.22044604925031E-16,-1.,0.));
#448=DIRECTION('ref_axis',(0.,0.,-1.));
#449=DIRECTION('',(5.35047240783208E-17,-1.18804353195935E-32,1.));
#450=DIRECTION('center_axis',(2.22044604925031E-16,1.,0.));
#451=DIRECTION('ref_axis',(0.,0.,-1.));
#452=DIRECTION('center_axis',(2.22044604925031E-16,1.,0.));
#453=DIRECTION('ref_axis',(0.,0.,-1.));
#454=DIRECTION('center_axis',(2.22044604925031E-16,1.,0.));
#455=DIRECTION('ref_axis',(0.,0.,-1.));
#456=DIRECTION('center_axis',(2.22044604925031E-16,1.,0.));
#457=DIRECTION('ref_axis',(0.,0.,-1.));
#458=DIRECTION('center_axis',(-2.22044604925031E-16,-1.,0.));
#459=DIRECTION('ref_axis',(0.,0.,-1.));
#460=DIRECTION('',(2.22044604925031E-16,1.,0.));
#461=DIRECTION('center_axis',(2.22044604925031E-16,1.,0.));
#462=DIRECTION('ref_axis',(0.,0.,-1.));
#463=DIRECTION('center_axis',(-2.22044604925031E-16,-1.,0.));
#464=DIRECTION('ref_axis',(0.,0.,-1.));
#465=DIRECTION('',(2.22044604925031E-16,1.,0.));
#466=DIRECTION('center_axis',(2.22044604925031E-16,1.,0.));
#467=DIRECTION('ref_axis',(0.,0.,-1.));
#468=DIRECTION('center_axis',(-2.22044604925031E-16,-1.,0.));
#469=DIRECTION('ref_axis',(0.,0.,-1.));
#470=DIRECTION('',(2.22044604925031E-16,1.,0.));
#471=DIRECTION('center_axis',(2.22044604925031E-16,1.,0.));
#472=DIRECTION('ref_axis',(0.,0.,-1.));
#473=DIRECTION('center_axis',(-2.22044604925031E-16,-1.,0.));
#474=DIRECTION('ref_axis',(0.,0.,-1.));
#475=DIRECTION('',(2.22044604925031E-16,1.,0.));
#476=DIRECTION('center_axis',(2.22044604925031E-16,1.,0.));
#477=DIRECTION('ref_axis',(0.,0.,-1.));
#478=DIRECTION('center_axis',(1.,-2.22044604925031E-16,-5.35047240783208E-17));
#479=DIRECTION('ref_axis',(5.35047240783208E-17,-1.18804353195935E-32,1.));
#480=DIRECTION('',(-5.35047240783208E-17,1.18804353195935E-32,-1.));
#481=DIRECTION('',(-2.22044604925031E-16,-1.,0.));
#482=DIRECTION('',(-2.22044604925031E-16,-1.,0.));
#483=DIRECTION('center_axis',(-2.22044604925031E-16,-1.,0.));
#484=DIRECTION('ref_axis',(0.,0.,-1.));
#485=DIRECTION('center_axis',(-2.22044604925031E-16,-1.,0.));
#486=DIRECTION('ref_axis',(0.,0.,-1.));
#487=DIRECTION('',(-2.22044604925031E-16,-1.,0.));
#488=DIRECTION('center_axis',(5.04646829375071E-17,-1.12054105855257E-32,
-1.));
#489=DIRECTION('ref_axis',(1.,-2.22044604925031E-16,5.04646829375071E-17));
#490=DIRECTION('',(-1.,2.22044604925031E-16,-5.04646829375071E-17));
#491=DIRECTION('',(-2.22044604925031E-16,-1.,0.));
#492=DIRECTION('center_axis',(-2.22044604925031E-16,-1.,0.));
#493=DIRECTION('ref_axis',(-1.,2.22044604925031E-16,2.66453525910038E-15));
#494=DIRECTION('center_axis',(-2.22044604925031E-16,-1.,0.));
#495=DIRECTION('ref_axis',(-1.,2.22044604925031E-16,2.66453525910038E-15));
#496=DIRECTION('',(-2.22044604925031E-16,-1.,0.));
#497=DIRECTION('center_axis',(-1.,2.22044604925031E-16,0.));
#498=DIRECTION('ref_axis',(0.,0.,-1.));
#499=DIRECTION('',(0.,0.,-1.));
#500=DIRECTION('',(-2.22044604925031E-16,-1.,0.));
#501=DIRECTION('center_axis',(-2.22044604925031E-16,-1.,0.));
#502=DIRECTION('ref_axis',(3.5527136788005E-15,-7.88860905221012E-31,1.));
#503=DIRECTION('center_axis',(-2.22044604925031E-16,-1.,0.));
#504=DIRECTION('ref_axis',(3.5527136788005E-15,-7.88860905221012E-31,1.));
#505=DIRECTION('',(-2.22044604925031E-16,-1.,0.));
#506=DIRECTION('center_axis',(0.,0.,1.));
#507=DIRECTION('ref_axis',(-1.,2.22044604925031E-16,0.));
#508=DIRECTION('',(-1.,2.22044604925031E-16,0.));
#509=DIRECTION('',(-2.22044604925031E-16,-1.,0.));
#510=DIRECTION('center_axis',(-2.22044604925031E-16,-1.,0.));
#511=DIRECTION('ref_axis',(1.,-2.22044604925031E-16,0.));
#512=DIRECTION('center_axis',(-2.22044604925031E-16,-1.,0.));
#513=DIRECTION('ref_axis',(1.,-2.22044604925031E-16,0.));
#514=DIRECTION('center_axis',(-2.22044604925031E-16,-1.,0.));
#515=DIRECTION('ref_axis',(0.,0.,-1.));
#516=DIRECTION('center_axis',(-2.22044604925031E-16,-1.,0.));
#517=DIRECTION('ref_axis',(0.,0.,-1.));
#518=CARTESIAN_POINT('',(0.,0.,0.));
#519=CARTESIAN_POINT('Origin',(43.,-6.99999999999998,68.));
#520=CARTESIAN_POINT('',(121.,-10.,68.));
#521=CARTESIAN_POINT('',(43.,-9.99999999999998,68.));
#522=CARTESIAN_POINT('',(62.4820812074505,-9.99999999999999,68.));
#523=CARTESIAN_POINT('',(121.,-22.,68.));
#524=CARTESIAN_POINT('',(121.,-7.,68.));
#525=CARTESIAN_POINT('',(43.,-22.,68.));
#526=CARTESIAN_POINT('',(121.,-22.,68.));
#527=CARTESIAN_POINT('',(43.,-6.99999999999998,68.));
#528=CARTESIAN_POINT('Origin',(121.,-7.,68.));
#529=CARTESIAN_POINT('',(121.,-10.,-5.));
#530=CARTESIAN_POINT('',(121.,-10.,49.75));
#531=CARTESIAN_POINT('',(121.,-22.,-5.));
#532=CARTESIAN_POINT('',(121.,-7.,-5.));
#533=CARTESIAN_POINT('',(121.,-22.,-5.));
#534=CARTESIAN_POINT('Origin',(43.,-6.99999999999998,-5.));
#535=CARTESIAN_POINT('',(43.,-9.99999999999998,-5.));
#536=CARTESIAN_POINT('',(43.,-9.99999999999998,13.25));
#537=CARTESIAN_POINT('',(43.,-22.,-5.));
#538=CARTESIAN_POINT('',(43.,-22.,68.));
#539=CARTESIAN_POINT('',(43.,-6.99999999999998,-5.));
#540=CARTESIAN_POINT('Origin',(121.,-7.,-5.));
#541=CARTESIAN_POINT('',(101.482081207451,-10.,-5.));
#542=CARTESIAN_POINT('',(43.,-22.,-5.));
#543=CARTESIAN_POINT('Origin',(81.964162414901,-22.,31.5));
#544=CARTESIAN_POINT('',(130.964162414901,-22.,73.));
#545=CARTESIAN_POINT('',(125.964162414901,-22.,78.));
#546=CARTESIAN_POINT('Origin',(125.964162414901,-22.,73.));
#547=CARTESIAN_POINT('',(37.964162414901,-22.,78.));
#548=CARTESIAN_POINT('',(125.964162414901,-22.,78.));
#549=CARTESIAN_POINT('',(32.964162414901,-22.,73.));
#550=CARTESIAN_POINT('Origin',(37.964162414901,-22.,73.));
#551=CARTESIAN_POINT('',(32.964162414901,-22.,-9.99999999999999));
#552=CARTESIAN_POINT('',(32.964162414901,-22.,73.));
#553=CARTESIAN_POINT('',(37.964162414901,-22.,-15.));
#554=CARTESIAN_POINT('Origin',(37.964162414901,-22.,-10.));
#555=CARTESIAN_POINT('',(125.964162414901,-22.,-15.));
#556=CARTESIAN_POINT('',(125.964162414901,-22.,-15.));
#557=CARTESIAN_POINT('',(130.964162414901,-22.,-10.));
#558=CARTESIAN_POINT('Origin',(125.964162414901,-22.,-10.));
#559=CARTESIAN_POINT('',(130.964162414901,-22.,73.));
#560=CARTESIAN_POINT('',(37.9999988824129,-22.,-8.55000014901161));
#561=CARTESIAN_POINT('Origin',(37.9999988824129,-22.,-10.0000001490116));
#562=CARTESIAN_POINT('',(37.9999988824129,-22.,74.4500010877848));
#563=CARTESIAN_POINT('Origin',(37.9999988824129,-22.,73.0000010877848));
#564=CARTESIAN_POINT('',(126.000000193715,-22.,-8.55000014901161));
#565=CARTESIAN_POINT('Origin',(126.000000193715,-22.,-10.0000001490116));
#566=CARTESIAN_POINT('',(126.000000193715,-22.,74.4500010877848));
#567=CARTESIAN_POINT('Origin',(126.000000193715,-22.,73.0000010877848));
#568=CARTESIAN_POINT('Origin',(126.000000193715,-7.,73.0000010877848));
#569=CARTESIAN_POINT('',(126.000000193715,-7.,74.4500010877848));
#570=CARTESIAN_POINT('',(126.000000193715,-7.,74.4500010877848));
#571=CARTESIAN_POINT('Origin',(126.000000193715,-7.,73.0000010877848));
#572=CARTESIAN_POINT('Origin',(37.9999988824129,-6.99999999999998,-10.0000001490116));
#573=CARTESIAN_POINT('',(37.9999988824129,-6.99999999999998,-8.55000014901161));
#574=CARTESIAN_POINT('',(37.9999988824129,-6.99999999999998,-8.55000014901161));
#575=CARTESIAN_POINT('Origin',(37.9999988824129,-6.99999999999998,-10.0000001490116));
#576=CARTESIAN_POINT('Origin',(126.000000193715,-7.,-10.0000001490116));
#577=CARTESIAN_POINT('',(126.000000193715,-7.,-8.55000014901161));
#578=CARTESIAN_POINT('',(126.000000193715,-7.,-8.55000014901161));
#579=CARTESIAN_POINT('Origin',(126.000000193715,-7.,-10.0000001490116));
#580=CARTESIAN_POINT('Origin',(37.9999988824129,-6.99999999999998,73.0000010877848));
#581=CARTESIAN_POINT('',(37.9999988824129,-6.99999999999998,74.4500010877848));
#582=CARTESIAN_POINT('',(37.9999988824129,-6.99999999999998,74.4500010877848));
#583=CARTESIAN_POINT('Origin',(37.9999988824129,-6.99999999999998,73.0000010877848));
#584=CARTESIAN_POINT('Origin',(130.964162414901,-7.,-10.));
#585=CARTESIAN_POINT('',(130.964162414901,-7.,73.));
#586=CARTESIAN_POINT('',(130.964162414901,-7.,-10.));
#587=CARTESIAN_POINT('',(130.964162414901,-7.,73.));
#588=CARTESIAN_POINT('',(130.964162414901,-7.,73.));
#589=CARTESIAN_POINT('',(130.964162414901,-7.,-10.));
#590=CARTESIAN_POINT('Origin',(125.964162414901,-7.,-10.));
#591=CARTESIAN_POINT('',(125.964162414901,-7.,-15.));
#592=CARTESIAN_POINT('Origin',(125.964162414901,-7.,-10.));
#593=CARTESIAN_POINT('',(125.964162414901,-7.,-15.));
#594=CARTESIAN_POINT('Origin',(37.964162414901,-6.99999999999998,-15.));
#595=CARTESIAN_POINT('',(37.964162414901,-6.99999999999998,-15.));
#596=CARTESIAN_POINT('',(125.964162414901,-7.,-15.));
#597=CARTESIAN_POINT('',(37.964162414901,-6.99999999999998,-15.));
#598=CARTESIAN_POINT('Origin',(37.964162414901,-6.99999999999998,-10.));
#599=CARTESIAN_POINT('',(32.964162414901,-6.99999999999998,-9.99999999999999));
#600=CARTESIAN_POINT('Origin',(37.964162414901,-6.99999999999998,-10.));
#601=CARTESIAN_POINT('',(32.964162414901,-6.99999999999998,-9.99999999999999));
#602=CARTESIAN_POINT('Origin',(32.964162414901,-6.99999999999998,73.));
#603=CARTESIAN_POINT('',(32.964162414901,-6.99999999999998,73.));
#604=CARTESIAN_POINT('',(32.964162414901,-6.99999999999998,73.));
#605=CARTESIAN_POINT('',(32.964162414901,-6.99999999999998,73.));
#606=CARTESIAN_POINT('Origin',(37.964162414901,-6.99999999999998,73.));
#607=CARTESIAN_POINT('',(37.964162414901,-6.99999999999998,78.));
#608=CARTESIAN_POINT('Origin',(37.964162414901,-6.99999999999998,73.));
#609=CARTESIAN_POINT('',(37.964162414901,-6.99999999999998,78.));
#610=CARTESIAN_POINT('Origin',(125.964162414901,-7.,78.));
#611=CARTESIAN_POINT('',(125.964162414901,-7.,78.));
#612=CARTESIAN_POINT('',(125.964162414901,-7.,78.));
#613=CARTESIAN_POINT('',(125.964162414901,-7.,78.));
#614=CARTESIAN_POINT('Origin',(125.964162414901,-7.,73.));
#615=CARTESIAN_POINT('Origin',(125.964162414901,-7.,73.));
#616=CARTESIAN_POINT('Origin',(81.964162414901,-10.,31.5));
#617=CARTESIAN_POINT('Origin',(81.964162414901,-6.99999999999999,31.5));
#618=UNCERTAINTY_MEASURE_WITH_UNIT(LENGTH_MEASURE(0.01),#622,
'DISTANCE_ACCURACY_VALUE',
'Maximum model space distance between geometric entities at asserted c
onnectivities');
#619=UNCERTAINTY_MEASURE_WITH_UNIT(LENGTH_MEASURE(0.01),#622,
'DISTANCE_ACCURACY_VALUE',
'Maximum model space distance between geometric entities at asserted c
onnectivities');
#620=(
GEOMETRIC_REPRESENTATION_CONTEXT(3)
GLOBAL_UNCERTAINTY_ASSIGNED_CONTEXT((#618))
GLOBAL_UNIT_ASSIGNED_CONTEXT((#622,#624,#625))
REPRESENTATION_CONTEXT('','3D')
);
#621=(
GEOMETRIC_REPRESENTATION_CONTEXT(3)
GLOBAL_UNCERTAINTY_ASSIGNED_CONTEXT((#619))
GLOBAL_UNIT_ASSIGNED_CONTEXT((#622,#624,#625))
REPRESENTATION_CONTEXT('','3D')
);
#622=(
LENGTH_UNIT()
NAMED_UNIT(*)
SI_UNIT(.MILLI.,.METRE.)
);
#623=(
LENGTH_UNIT()
NAMED_UNIT(*)
SI_UNIT($,.METRE.)
);
#624=(
NAMED_UNIT(*)
PLANE_ANGLE_UNIT()
SI_UNIT($,.RADIAN.)
);
#625=(
NAMED_UNIT(*)
SI_UNIT($,.STERADIAN.)
SOLID_ANGLE_UNIT()
);
#626=SHAPE_DEFINITION_REPRESENTATION(#627,#628);
#627=PRODUCT_DEFINITION_SHAPE('',$,#630);
#628=SHAPE_REPRESENTATION('',(#378),#620);
#629=PRODUCT_DEFINITION_CONTEXT('part definition',#634,'design');
#630=PRODUCT_DEFINITION('2026-06-24-08-41-47-317','pixelpadv2',#631,#629);
#631=PRODUCT_DEFINITION_FORMATION('',$,#636);
#632=PRODUCT_RELATED_PRODUCT_CATEGORY('pixelpadv2','pixelpadv2',(#636));
#633=APPLICATION_PROTOCOL_DEFINITION('international standard',
'automotive_design',2009,#634);
#634=APPLICATION_CONTEXT(
'Core Data for Automotive Mechanical Design Process');
#635=PRODUCT_CONTEXT('part definition',#634,'mechanical');
#636=PRODUCT('2026-06-24-08-41-47-317','pixelpadv2',$,(#635));
#637=PRESENTATION_STYLE_ASSIGNMENT((#638));
#638=SURFACE_STYLE_USAGE(.BOTH.,#639);
#639=SURFACE_SIDE_STYLE('',(#640));
#640=SURFACE_STYLE_FILL_AREA(#641);
#641=FILL_AREA_STYLE('Steel - Satin',(#642));
#642=FILL_AREA_STYLE_COLOUR('Steel - Satin',#643);
#643=COLOUR_RGB('Steel - Satin',0.627450980392157,0.627450980392157,0.627450980392157);
ENDSEC;
END-ISO-10303-21;
